<svg xmlns="http://www.w3.org/2000/svg" width="45" height="45" fill="none"><path fill="#F13C6E" fill-rule="evenodd" d="M22.5 43C33.822 43 43 33.822 43 22.5S33.822 2 22.5 2 2 11.178 2 22.5 11.178 43 22.5 43Zm0 2C34.926 45 45 34.926 45 22.5S34.926 0 22.5 0 0 10.074 0 22.5 10.074 45 22.5 45Z" clip-rule="evenodd"/><path fill="#F13C6E" d="M27 13.004 24.405 13c-2.914 0-4.797 1.932-4.797 4.922v2.27h-2.608a.408.408 0 0 0-.407.407v3.288c0 .226.182.408.407.408h2.608v8.297c0 .226.182.408.408.408h3.402a.408.408 0 0 0 .408-.408v-8.297h3.049a.408.408 0 0 0 .408-.408l.001-3.288a.409.409 0 0 0-.408-.408h-3.05v-1.923c0-.925.22-1.394 1.425-1.394l1.747-.001a.408.408 0 0 0 .408-.408v-3.053a.408.408 0 0 0-.408-.408Z"/></svg>