<svg xmlns="http://www.w3.org/2000/svg" width="254" height="79" fill="none"><g clip-path="url(#a)"><path fill="#F13C6E" d="M57.22 25 46.69 35.38l4.08 4.02L61.3 29.02 57.22 25ZM35.9 46.02 25.39 56.4l4.07 4.02L40 50.04l-4.08-4.02ZM50.52 18.43 39.98 28.81l4.08 4.02L54.6 22.45l-4.08-4.02ZM29.24 39.43 18.7 49.8l4.08 4.01 10.53-10.37-4.07-4.02ZM22.76 25l-4.08 4.02L29.2 39.4l4.08-4.02L22.76 25ZM29.45 18.43l-4.07 4.01L35.9 32.82l4.08-4.01-10.54-10.38ZM50.76 39.4l-4.08 4.02L57.21 53.8l4.08-4.02L50.76 39.4ZM44.1 46 40 50.02 50.55 60.4l4.08-4.02L44.09 46Z"/><path fill="#EFEFEF" d="m54.6 64.44-4.06-4L40 70.81 29.46 60.43l-4.07 4L40 78.84l14.6-14.4ZM18.67 29.03l-4.06-4L0 39.41 14.6 53.8l4.07-4L8.13 39.4l10.54-10.38ZM65.4 25.02l-4.07 4.01 10.54 10.39L61.33 49.8l4.06 4L80 39.43l-14.6-14.4ZM50.54 18.4l4.07-4L40 0 25.4 14.4l4.06 4L40 8.01 50.54 18.4Z"/></g><path fill="#F13C6E" d="M102.28 53.21V28h8.97c3.1 0 5.46.6 7.07 1.77 1.6 1.16 2.4 2.88 2.4 5.14 0 1.24-.32 2.33-.96 3.28a5.6 5.6 0 0 1-2.7 2.06c1.32.32 2.35.97 3.1 1.96a5.7 5.7 0 0 1 1.15 3.6c0 2.42-.79 4.26-2.36 5.5-1.57 1.25-3.8 1.89-6.72 1.91h-9.95Zm5.28-10.98v6.8h4.52a4.4 4.4 0 0 0 2.9-.86 3 3 0 0 0 1.05-2.42c0-2.31-1.21-3.49-3.64-3.52h-4.83Zm0-3.67h3.9c2.66-.05 4-1.1 4-3.14 0-1.14-.35-1.96-1.03-2.46-.67-.5-1.73-.76-3.18-.76h-3.7v6.36ZM144.28 42.28h-10.13v6.76h11.88v4.17h-17.15V28H146v4.21h-11.85v6.01h10.13v4.07ZM167.18 48.02h-9.25l-1.76 5.2h-5.6l9.52-25.23h4.89l9.58 25.22h-5.6l-1.78-5.2Zm-7.83-4.21h6.4l-3.21-9.44-3.19 9.44ZM199.6 28v16.6c0 2.76-.87 4.95-2.63 6.55-1.75 1.6-4.14 2.4-7.17 2.4-3 0-5.37-.77-7.12-2.33-1.76-1.56-2.66-3.7-2.7-6.43V28h5.28v16.65c0 1.65.4 2.86 1.2 3.62.8.75 1.92 1.12 3.34 1.12 2.96 0 4.47-1.53 4.51-4.6V27.99h5.3ZM226.8 32.2h-7.84v21.01h-5.28v-21h-7.73v-4.22h20.84v4.21ZM242.52 39.35 247.85 28h5.77l-8.4 16.08v9.14h-5.37v-9.14l-8.4-16.08h5.78l5.3 11.36Z"/><defs><clipPath id="a"><path fill="#fff" d="M0 0h80v78.83H0z"/></clipPath></defs></svg>